HIERARCHY
ROOT Hips
{
 OFFSET 0.000000 0.000000 0.000000
 CHANNELS 6 Xposition Yposition Zposition Yrotation Xrotation Zrotation
 JOINT Chest
 {
  OFFSET 0.000000 9.585900 0.002600
  CHANNELS 3 Yrotation Xrotation Zrotation
  JOINT Chest2
  {
   OFFSET 0.000000 9.601200 -0.005300
   CHANNELS 3 Yrotation Xrotation Zrotation
   JOINT Chest3
   {
    OFFSET 0.000000 9.561800 0.000000
    CHANNELS 3 Yrotation Xrotation Zrotation
    JOINT Chest4
    {
     OFFSET 0.000000 9.552100 0.000000
     CHANNELS 3 Yrotation Xrotation Zrotation
     JOINT Neck
     {
      OFFSET 0.000000 14.453000 0.000000
      CHANNELS 3 Yrotation Xrotation Zrotation
      JOINT Head
      {
       OFFSET 0.000000 8.936500 -0.011300
       CHANNELS 3 Yrotation Xrotation Zrotation
       End Site
       {
        OFFSET 0.000000 17.073600 -0.006000
       }
      }
     }
     JOINT RightCollar
     {
      OFFSET -2.921100 9.558500 0.000000
      CHANNELS 3 Yrotation Xrotation Zrotation
      JOINT RightShoulder
      {
       OFFSET -13.519700 0.000000 0.000000
       CHANNELS 3 Yrotation Xrotation Zrotation
       JOINT RightElbow
       {
        OFFSET 0.000000 -29.696600 0.000000
        CHANNELS 3 Yrotation Xrotation Zrotation
        JOINT RightWrist
        {
         OFFSET 0.000000 -24.004700 0.000000
         CHANNELS 3 Yrotation Xrotation Zrotation
         End Site
         {
          OFFSET 0.000000 -17.728500 0.000000
         }
        }
       }
      }
     }
     JOINT LeftCollar
     {
      OFFSET 2.921100 9.558500 0.000000
      CHANNELS 3 Yrotation Xrotation Zrotation
      JOINT LeftShoulder
      {
       OFFSET 13.519700 0.000000 0.000000
       CHANNELS 3 Yrotation Xrotation Zrotation
       JOINT LeftElbow
       {
        OFFSET 0.000000 -29.696600 0.000000
        CHANNELS 3 Yrotation Xrotation Zrotation
        JOINT LeftWrist
        {
         OFFSET 0.000000 -24.004700 0.000000
         CHANNELS 3 Yrotation Xrotation Zrotation
         End Site
         {
          OFFSET 0.000000 -17.728500 0.000000
         }
        }
       }
      }
     }
    }
   }
  }
 }
 JOINT RightHip
 {
  OFFSET -7.771700 -0.012900 -0.001300
  CHANNELS 3 Yrotation Xrotation Zrotation
  JOINT RightKnee
  {
   OFFSET 0.000000 -40.869800 0.001200
   CHANNELS 3 Yrotation Xrotation Zrotation
   JOINT RightAnkle
   {
    OFFSET 0.000000 -39.717900 0.002100
    CHANNELS 3 Yrotation Xrotation Zrotation
    JOINT RightToe
    {
     OFFSET 0.000000 -4.965400 11.033500
     CHANNELS 3 Yrotation Xrotation Zrotation
     End Site
     {
      OFFSET 0.000000 -1.423100 5.872300
     }
    }
   }
  }
 }
 JOINT LeftHip
 {
  OFFSET 7.771700 -0.012900 -0.001300
  CHANNELS 3 Yrotation Xrotation Zrotation
  JOINT LeftKnee
  {
   OFFSET 0.000000 -40.869800 0.001200
   CHANNELS 3 Yrotation Xrotation Zrotation
   JOINT LeftAnkle
   {
    OFFSET 0.000000 -39.717900 0.002100
    CHANNELS 3 Yrotation Xrotation Zrotation
    JOINT LeftToe
    {
     OFFSET 0.000000 -4.965400 11.033500
     CHANNELS 3 Yrotation Xrotation Zrotation
     End Site
     {
      OFFSET 0.000000 -1.423100 5.872300
     }
    }
   }
  }
 }
}
MOTION
Frames: 8
Frame Time: 0.008333
-25.857617 48.682962 28.310676 176.321356 -34.282876 -1.881481 0.039315 15.568716 1.969906 -0.127160 8.867023 1.295761 -0.149254 11.032745 1.642247 -0.138025 8.844301 1.304285 -1.094129 17.871409 -0.052838 -1.996739 -2.600631 0.263882 8.162028 2.532839 -2.318847 4.268093 -19.916035 -11.482272 41.243270 -60.963005 -30.435833 14.499405 11.624046 -31.400144 -6.015238 -0.336938 -6.187954 1.368012 -25.641103 0.596892 -78.943318 -42.463971 49.176842 -15.746421 17.490099 29.589627 24.275263 -47.364731 -21.049469 -135.458949 76.627514 -125.217649 0.857914 -20.169833 3.415199 0.029364 -0.246508 0.130635 -9.715505 -49.406368 12.989719 110.962258 79.037126 109.450983 -3.493455 -10.359014 -4.482518 0.060830 0.435681 -0.003687
-25.877514 48.676583 28.335397 176.303202 -34.335641 -1.921286 0.047377 15.579226 2.023401 -0.154828 8.821185 1.322912 -0.163095 11.026571 1.665729 -0.146552 8.838420 1.323124 -1.110343 17.843999 -0.049900 -2.027779 -2.651349 0.275125 8.148526 2.731224 -2.218121 4.417079 -20.360080 -11.598721 40.996986 -60.727979 -30.243721 14.527702 11.619854 -31.377475 -6.037440 -0.298487 -6.266389 1.334593 -25.766560 0.677372 -78.589167 -42.523800 48.823409 -15.663338 17.382412 29.666518 24.289902 -47.332959 -20.959594 -135.361895 76.657597 -125.109272 0.828843 -20.178938 3.403039 0.050789 -0.210569 0.144225 -9.686968 -49.376215 12.969899 110.817935 79.014091 109.369200 -3.505916 -10.359161 -4.500357 0.075401 0.454468 0.006507
-25.897032 48.668462 28.368100 176.295529 -34.345894 -1.963268 0.002525 15.496110 2.074780 -0.154567 8.830439 1.336030 -0.175607 11.013534 1.687025 -0.156851 8.827916 1.340285 -1.126117 17.823556 -0.060637 -2.053522 -2.689321 0.260856 8.116188 2.914817 -2.132433 4.568960 -20.764157 -11.657295 40.774760 -60.469509 -30.082813 14.556553 11.582793 -31.364168 -6.037177 -0.286983 -6.326647 1.276250 -25.856264 0.741032 -78.186809 -42.571309 48.425751 -15.596588 17.275117 29.711095 24.375853 -47.345102 -20.920419 -135.242626 76.658027 -124.951016 0.767936 -20.161052 3.395216 0.077583 -0.180928 0.184902 -9.746220 -49.425610 12.962235 110.804899 78.930728 109.392332 -3.444601 -10.275419 -4.508187 0.021306 0.400085 -0.010554
-25.914889 48.666706 28.397121 176.290203 -34.397514 -2.004935 -0.042938 15.459324 2.126702 -0.169446 8.812270 1.355641 -0.179208 11.015771 1.695449 -0.169375 8.812251 1.355653 -1.142488 17.812329 -0.082348 -2.076626 -2.710297 0.226414 8.070899 3.071401 -2.065140 4.691664 -21.104995 -11.641989 40.604494 -60.199424 -29.962150 14.585852 11.516068 -31.365080 -6.016385 -0.298016 -6.368964 1.199091 -25.906952 0.781810 -77.740192 -42.607932 47.988916 -15.537046 17.165167 29.732210 24.413896 -47.326231 -20.856971 -135.185501 76.641000 -124.859081 0.734501 -20.143806 3.380968 0.111276 -0.174577 0.212761 -9.868867 -49.402853 13.024875 110.796619 78.881235 109.362317 -3.424171 -10.202955 -4.525045 0.007237 0.363076 -0.014515
-25.937519 48.667683 28.426805 176.284825 -34.453679 -2.008143 -0.085885 15.450372 2.135774 -0.180579 8.789959 1.370314 -0.192961 10.987889 1.713491 -0.180530 8.789959 1.370262 -1.160660 17.813029 -0.112049 -2.100252 -2.709232 0.177710 8.019827 3.191115 -2.012568 4.755149 -21.363397 -11.543068 40.511408 -59.927927 -29.896417 14.613931 11.428415 -31.377271 -5.990894 -0.317215 -6.386705 1.124768 -25.928139 0.784167 -77.261784 -42.627433 47.517663 -15.478135 17.047532 29.746354 24.455424 -47.285760 -20.834480 -135.121806 76.640737 -124.778799 0.698351 -20.106756 3.351680 0.197177 -0.234056 0.216969 -9.969414 -49.365507 13.057425 110.754209 78.854595 109.276677 -3.430139 -10.178044 -4.553583 0.031655 0.378150 -0.001258
-25.953421 48.662052 28.471908 176.183045 -34.415656 -1.993159 -0.044263 15.349602 2.175899 -0.189184 8.761158 1.384578 -0.175734 11.017813 1.707192 -0.209986 8.694685 1.414369 -1.180497 17.825753 -0.146521 -2.125297 -2.685912 0.120592 7.971066 3.268896 -1.970553 4.743835 -21.532750 -11.359000 40.499976 -59.660105 -29.887357 14.640770 11.323176 -31.402905 -5.968127 -0.336068 -6.375106 1.074939 -25.929413 0.735843 -76.766278 -42.622545 47.018601 -15.421036 16.919671 29.766832 24.540591 -47.348695 -20.798332 -134.869856 76.731877 -124.585406 0.779609 -20.133694 3.375408 0.074828 -0.156727 0.167863 -10.077475 -49.410199 13.189067 110.716418 78.844329 109.179888 -3.409624 -10.079574 -4.578498 0.033636 0.322914 0.007033
-25.969580 48.658435 28.517998 176.125217 -34.377105 -1.992165 -0.038129 15.253191 2.201927 -0.185003 8.750759 1.394181 -0.210537 10.921446 1.742911 -0.206705 8.694327 1.412505 -1.201988 17.848715 -0.183764 -2.152347 -2.643616 0.058742 7.928184 3.303739 -1.940252 4.660427 -21.617281 -11.095057 40.562479 -59.397607 -29.932103 14.665263 11.199472 -31.450125 -5.949375 -0.357825 -6.336852 1.057771 -25.910027 0.635926 -76.276649 -42.582681 46.514954 -15.362027 16.783113 29.800142 24.768833 -47.417799 -20.838823 -134.709485 76.716990 -124.376457 0.711845 -20.055527 3.389533 0.087608 -0.165322 0.205471 -10.210435 -49.454004 13.301152 110.654785 78.845343 109.058289 -3.378465 -10.027200 -4.604500 0.037365 0.319369 0.014112
-25.986657 48.658317 28.561530 176.099219 -34.360905 -1.992314 -0.057482 15.182283 2.209365 -0.192809 8.717050 1.408074 -0.233038 10.845779 1.771680 -0.204912 8.694438 1.412197 -1.224705 17.879555 -0.223218 -2.180795 -2.586727 -0.006852 7.894121 3.299739 -1.924587 4.522936 -21.633426 -10.764536 40.683101 -59.138886 -30.026270 14.683678 11.060612 -31.517822 -5.936576 -0.393703 -6.281661 1.071826 -25.865703 0.495197 -75.829193 -42.490564 46.041068 -15.289716 16.639467 29.856484 24.928522 -47.453125 -20.871582 -134.553671 76.710903 -124.189117 0.663986 -19.992230 3.418221 0.128952 -0.214413 0.187408 -10.313767 -49.478447 13.351224 110.537973 78.849444 108.902614 -3.337246 -9.973565 -4.628229 0.035631 0.317664 0.014979
